<?xml version="1.0" standalone="yes"?>
<svg xmlns="http://www.w3.org/2000/svg" width="1492" height="223">
<path style="fill:#010101; stroke:none;" d="M0 0L0 223L202 223L202 186L200.972 172.603L192 171L167 171L66 171L66 0L0 0z"/>
<path style="fill:#ffffff; stroke:none;" d="M66 0L66 171L166 171C173.236 171 195.143 167.349 200.397 172.603C203.272 175.479 202 182.306 202 186L202 223C211.728 222.966 212.166 216.904 215.769 209C221.346 196.768 226.547 184.354 231.85 172C248.629 132.906 266.069 94.0959 282.85 55C290.534 37.095 300.859 18.798 306 0L66 0z"/>
<path style="fill:#010101; stroke:none;" d="M210 223L290 223C291.982 214.634 296.796 194.159 303.419 188.603C307.919 184.829 319.429 187 325 187L378 187C383.368 187 393.973 184.979 398.582 188.028C404.385 191.867 407.044 206.664 409.308 213C410.496 216.328 411.313 221.523 415.214 222.682C422.377 224.81 432.538 223 440 223L493 223C474.031 167.273 445.995 113.101 422.719 59C416.559 44.681 410.7 30.182 404.231 16C402.29 11.745 400.705 3.67043 396.606 1.02779C392.088 -1.88553 382.217 0 377 0L327 0C321.948 0 309.786 -2.22818 305.994 1.60339C301.634 6.00818 299.578 15.3434 297.15 21C290.852 35.6757 284.594 50.391 278.14 65C262.855 99.5955 247.702 134.273 232.719 169C225.136 186.575 215.051 204.531 210 223z"/>
<path style="fill:#ffffff; stroke:none;" d="M397 0L466.579 162L485.012 205L493.498 221.972L505 223L532 223L532 177C532 169.77 533.323 161.04 531.581 154C528.323 140.827 514.821 126.252 507.333 115C490.603 89.8584 474.748 64.1334 458 39C452.271 30.4027 446.589 21.7235 441.053 13C438.678 9.25667 436.336 3.47313 432.482 1.02779C425.087 -3.66528 405.72 0 397 0z"/>
<path style="fill:#010101; stroke:none;" d="M433 0L460 43L506.667 115L531.298 154L532 176L532 223L606 223L606 175C606 168.301 604.462 159.34 606.843 153C612.073 139.069 624.116 125.385 632.333 113C648.981 87.9038 665.442 62.5244 681.424 37C688.448 25.7825 700.963 12.9301 704 0L643 0C636.644 0 624.8 -2.26836 619.213 1.02779C612.402 5.04602 607.268 21.0195 603.752 28C592.648 50.05 578.529 71.2333 569 94L533.309 27L518.61 1.02779L495 0L433 0z"/>
<path style="fill:#ffffff; stroke:none;" d="M519 0L546.742 53L569 94L619 0L519 0M704 0L681.424 36L630.333 115L606.843 152L606 175L606 223L722 223L722 175L945 175L945 223L966 223L966 0L945 0L945 48L722 48L722 0L704 0z"/>
<path style="fill:#010101; stroke:none;" d="M722 0L722 48L945 48L945 0L722 0M966 0L966 223L1040 223L1040 149L1103 149C1114.59 149 1126.13 149.815 1132.64 161C1140.44 174.419 1136.82 191.357 1138.72 206C1139.28 210.322 1138.85 219.059 1142.7 221.972C1147.13 225.318 1159.61 223 1165 223L1224 223C1209.72 199.281 1213.53 172.229 1208.92 146C1206.35 131.398 1198.29 117.633 1183 114C1194.13 109.068 1203.5 105.706 1210.64 95C1228.99 67.4661 1217.89 20.4785 1187 7.46451C1161.93 -3.09897 1132.54 0 1106 0L966 0z"/>
<path style="fill:#ffffff; stroke:none;" d="M1154 0L1154 1C1175.85 1.06027 1198.98 9.48396 1210.55 29C1227.67 57.8761 1218.99 104.67 1183 113L1183 114C1213.57 124.428 1210.7 162.755 1213 189C1213.81 198.281 1215.03 215.296 1223.21 221.397C1227.68 224.727 1236.69 223 1242 223L1242 0L1154 0z"/>
<path style="fill:#010101; stroke:none;" d="M1242 0L1242 223L1316 223L1316 149L1374 149C1383.37 149 1393.94 147.832 1402 153.638C1417.93 165.12 1412.84 189.247 1414.84 206C1415.37 210.365 1415.12 217.896 1418.14 221.397C1421.27 225.032 1432.6 223 1437 223L1492 223C1492 207.7 1489.2 193.198 1488.09 178C1487.11 164.662 1487.47 149.713 1482.91 137C1478.92 125.878 1470.7 116.779 1459 114C1470.33 108.977 1480.67 105.321 1487.52 94C1493.01 84.9304 1492 75.1638 1492 65C1492 40.0156 1489.26 18.5257 1463 7.46451C1437.89 -3.1136 1408.6 0 1382 0L1242 0z"/>
<path style="fill:#ffffff; stroke:none;" d="M1430 0L1430 1C1454.96 1.01651 1483.79 12.8593 1491 39L1492 39L1492 0L1430 0M1040 51L1040 85C1040 88.328 1038.82 94.6154 1041.03 97.3966C1044.16 101.355 1058.33 99 1063 99L1108 99C1116.54 98.9967 1126.47 98.3287 1132.79 91.8148C1148.84 75.262 1134.72 51.0333 1114 51L1084 51L1040 51M1316 51L1316 99L1372 99C1381.7 99 1392.8 100.291 1402 96.517C1416.7 90.4835 1419.94 66.6447 1407.96 56.3403C1399.92 49.433 1388.81 51 1379 51L1316 51M350 58L321 140L382 140C375.59 112.95 363.27 83.424 352 58L350 58M1491 85C1486.05 99.5011 1473.76 109.583 1459 113L1459 114C1492.34 125.376 1488.73 175.269 1491 204L1492 204L1492 121L1491 85z"/>
<path style="fill:#010101; stroke:none;" d="M667 89L667 134L890 134L890 89L667 89z"/>
<path style="fill:#ffffff; stroke:none;" d="M1040 149L1040 223L1142 223C1137.6 203.744 1143.34 174.325 1131.36 158.015C1124.58 148.784 1113.29 149 1103 149L1040 149M1316 149L1316 223L1418 223C1414.05 203.832 1419.22 174.16 1407.36 158.015C1400.58 148.784 1389.29 149 1379 149L1316 149z"/>
<path style="fill:#010101; stroke:none;" d="M722 175L722 223L945 223L945 175L722 175z"/>
<path style="fill:#ffffff; stroke:none;" d="M290 223L413 223C410.735 214.703 406.315 193.231 399.301 188.028C394.805 184.693 382.444 187 377 187L324 187C318.643 187 308.013 184.975 303.419 188.028C300.677 189.85 300.002 194.117 298.947 197C295.878 205.389 291.324 214.158 290 223z"/>
</svg>
